<?xml version="1.0" encoding="UTF-8" standalone="no"?>
<!-- Created with Inkscape (http://www.inkscape.org/) -->

<svg
   xmlns:dc="http://purl.org/dc/elements/1.1/"
   xmlns:cc="http://creativecommons.org/ns#"
   xmlns:rdf="http://www.w3.org/1999/02/22-rdf-syntax-ns#"
   xmlns:svg="http://www.w3.org/2000/svg"
   xmlns="http://www.w3.org/2000/svg"
   xmlns:xlink="http://www.w3.org/1999/xlink"
   xmlns:sodipodi="http://sodipodi.sourceforge.net/DTD/sodipodi-0.dtd"
   xmlns:inkscape="http://www.inkscape.org/namespaces/inkscape"
   width="100"
   height="100"
   id="svg2"
   version="1.1"
   inkscape:version="0.48.2 r9819"
   sodipodi:docname="New document 1">
  <defs
     id="defs4">
    <linearGradient
       id="linearGradient3769">
      <stop
         style="stop-color:#ac9023;stop-opacity:1;"
         offset="0"
         id="stop3771" />
      <stop
         style="stop-color:#e7e7d1;stop-opacity:1;"
         offset="1"
         id="stop3773" />
    </linearGradient>
    <linearGradient
       inkscape:collect="always"
       xlink:href="#linearGradient3769"
       id="linearGradient3775"
       x1="48.739861"
       y1="1027.6134"
       x2="50.128819"
       y2="952.60962"
       gradientUnits="userSpaceOnUse" />
  </defs>
  <sodipodi:namedview
     id="base"
     pagecolor="#ffffff"
     bordercolor="#666666"
     borderopacity="1.0"
     inkscape:pageopacity="0.0"
     inkscape:pageshadow="2"
     inkscape:zoom="7.9195959"
     inkscape:cx="49.21334"
     inkscape:cy="58.297346"
     inkscape:document-units="px"
     inkscape:current-layer="layer1"
     showgrid="false"
     inkscape:snap-nodes="true"
     inkscape:window-width="1366"
     inkscape:window-height="720"
     inkscape:window-x="0"
     inkscape:window-y="0"
     inkscape:window-maximized="1" />
  <metadata
     id="metadata7">
    <rdf:RDF>
      <cc:Work
         rdf:about="">
        <dc:format>image/svg+xml</dc:format>
        <dc:type
           rdf:resource="http://purl.org/dc/dcmitype/StillImage" />
        <dc:title></dc:title>
      </cc:Work>
    </rdf:RDF>
  </metadata>
  <g
     inkscape:label="Layer 1"
     inkscape:groupmode="layer"
     id="layer1"
     transform="translate(0,-952.36218)">
    <path
       style="fill:#c83737;stroke:none"
       d="m 100,1052.3622 -100,0 0,-50 c 0.12626907,18.191 36.984505,25.2838 50,25 13.015494,-0.2838 50.12627,-7.2143 50,-25"
       id="path2989"
       inkscape:connector-curvature="0"
       sodipodi:nodetypes="ccczc" />
    <path
       style="fill:url(#linearGradient3775);stroke:none;fill-opacity:1"
       d="m 45.854583,1027.8186 c -2.801778,-0.1815 -8.019516,-0.8988 -11.364216,-1.5621 -13.09213,-2.5965 -23.756638,-7.2273 -29.3011817,-12.7235 -2.8357988,-2.811 -4.36453216,-5.5406 -4.91444387,-8.775 -0.2374102,-1.3964 -0.24444073,-1.7501 -0.0331562,-1.6682 0.0877468,0.034 11.32000377,-7.83397 24.96057177,-17.48449 15.394789,-10.89162 24.852386,-17.5057 24.936437,-17.43909 0.07447,0.059 11.235201,7.95799 24.801618,17.55327 13.566416,9.59526 24.741497,17.41671 24.833513,17.38101 0.361055,-0.14 -0.06534,2.4073 -0.696318,4.1598 -1.402409,3.8951 -5.215161,7.7193 -10.837423,10.8701 -8.521869,4.7755 -22.762894,8.6578 -35.37114,9.6425 -1.548161,0.1209 -5.460516,0.1465 -7.014261,0.046 z"
       id="path3767"
       inkscape:connector-curvature="0" />
  </g>
</svg>
